<svg width="497" height="157" viewBox="0 0 497 157" fill="none" xmlns="http://www.w3.org/2000/svg">
<path d="M216.598 135.743L263.72 85.1481L263.304 83.9484H232.462L235.114 52.8092H323.793L320.1 73.5687L273.602 124.163L274.018 125.415H312.246L306.889 156.502H213.114L216.598 135.743Z" fill="#146EFF"/>
<path d="M322.754 135.743L369.875 85.1481L369.459 83.9484H338.617L341.269 52.8092H429.948L426.255 73.5687L379.757 124.163L380.174 125.415H418.402L413.044 156.502H319.269L322.754 135.743Z" fill="#146EFF"/>
<path d="M180.087 26.7839L175.614 52.8114H207.133L174.106 61.5743L157.775 156.504H196.835L219.303 26.7839H180.087Z" fill="#146EFF"/>
<path d="M456.835 26.7831L452.362 52.8106H482.684L450.853 61.5735L434.47 156.504H473.582L496.051 26.7831H456.835Z" fill="#146EFF"/>
<path d="M156.09 40.6844C158.066 31.4 157.286 23.3674 153.749 16.7432C147.82 5.89401 134.869 0.312957 114.897 0H35.3206L28.0911 32.5475L0.525391 157H66.4751H74.6928C83.0666 157 90.9722 156.27 98.4098 154.861C105.847 153.453 112.609 150.793 118.694 146.985C124.103 143.647 128.888 139.527 133.153 134.624C139.654 127.217 143.971 118.924 146.052 109.587C148.028 100.563 147.612 92.896 144.803 86.5847C141.943 80.2734 136.69 75.6312 128.992 72.7625C135.077 70.0502 139.81 67.0771 143.295 63.8432C149.64 58.0013 153.905 50.2817 156.09 40.6844ZM64.4987 157H58.7255L62.6263 139.474L70.896 102.076L71.3121 100.042H41.874L52.6923 52.5246H35.3206L75.9411 26.2362L103.819 52.5246H90.4001L86.1872 71.5106H124.883L64.4987 157Z" fill="#146EFF"/>
</svg>
