<svg width="158" height="157" viewBox="0 0 158 157" fill="none" xmlns="http://www.w3.org/2000/svg">
<path d="M156.192 40.6844C158.168 31.4 157.388 23.3674 153.851 16.7432C147.922 5.89401 134.971 0.312957 114.999 0H35.4224L28.1929 32.5475L0.627197 157H66.5769H74.7946C83.1684 157 91.074 156.27 98.5116 154.861C105.949 153.453 112.711 150.793 118.796 146.985C124.205 143.647 128.99 139.527 133.255 134.624C139.756 127.217 144.073 118.924 146.154 109.587C148.13 100.563 147.714 92.896 144.905 86.5847C142.045 80.2734 136.792 75.6312 129.094 72.7625C135.179 70.0502 139.912 67.0771 143.397 63.8432C149.742 58.0013 154.007 50.2817 156.192 40.6844ZM64.6005 157H58.8273L62.7281 139.474L70.9979 102.076L71.4139 100.042H41.9758L52.7941 52.5246H35.4224L76.0429 26.2362L103.921 52.5246H90.5019L86.289 71.5106H124.985L64.6005 157Z" fill="#146EFF"/>
</svg>
